<svg width="125" height="125" viewBox="0 0 125 125" fill="none" xmlns="http://www.w3.org/2000/svg">
<path d="M108.44 7.8125H17.1582C12.1704 7.8125 7.8125 11.4014 7.8125 16.3306V107.815C7.8125 112.771 12.1704 117.188 17.1582 117.188H108.413C113.428 117.188 117.188 112.742 117.188 107.815V16.3306C117.217 11.4014 113.428 7.8125 108.44 7.8125ZM41.7163 98.9819H26.0474V50.2637H41.7163V98.9819ZM34.4238 42.8564H34.3115C29.2969 42.8564 26.0498 39.1235 26.0498 34.4507C26.0498 29.6924 29.3823 26.0474 34.5093 26.0474C39.6362 26.0474 42.7734 29.6655 42.8857 34.4507C42.8833 39.1235 39.6362 42.8564 34.4238 42.8564ZM98.9819 98.9819H83.313V72.3438C83.313 65.9619 81.0327 61.6016 75.3638 61.6016C71.0327 61.6016 68.4692 64.5313 67.3291 67.3853C66.9019 68.4106 66.7871 69.8071 66.7871 71.2329V98.9819H51.1182V50.2637H66.7871V57.0435C69.0674 53.7964 72.6294 49.1235 80.918 49.1235C91.2036 49.1235 98.9844 55.9033 98.9844 70.52L98.9819 98.9819Z" fill="#FDF6C3"/>
</svg>
