<svg width="125" height="125" viewBox="0 0 125 125" fill="none" xmlns="http://www.w3.org/2000/svg">
<path d="M84.0087 57.0312C76.9531 57.0312 75.9765 64.0625 75.9765 64.0625H90.9667C90.9667 64.0625 91.0644 57.0312 84.0087 57.0312ZM50 64.0625H36.7187V76.2695H49.3408C51.2451 76.2207 54.8095 75.6836 54.8095 70.3369C54.8095 63.9892 50 64.0625 50 64.0625Z" fill="#FDF6C3"/>
<path d="M62.5 7.8125C32.2998 7.8125 7.8125 32.2998 7.8125 62.5C7.8125 92.7002 32.2998 117.188 62.5 117.188C92.7002 117.188 117.188 92.7002 117.188 62.5C117.188 32.2998 92.7002 7.8125 62.5 7.8125ZM74.0234 41.4062H92.8467V47.0215H74.0234V41.4062ZM64.502 70.8984C64.502 84.8145 50 84.375 50 84.375H26.2695V38.7207H50C57.2266 38.7207 62.915 42.7002 62.915 50.8789C62.915 59.0576 55.957 59.5703 55.957 59.5703C65.1367 59.5703 64.502 70.8984 64.502 70.8984ZM99.707 70.1416H76.0498C76.0498 78.6133 84.082 78.0762 84.082 78.0762C91.6748 78.0762 91.4062 73.1689 91.4062 73.1689H99.4385C99.4385 86.2061 83.8135 85.3027 83.8135 85.3027C65.0879 85.3027 66.2842 67.8467 66.2842 67.8467C66.2842 67.8467 66.2598 50.3174 83.8135 50.3174C102.295 50.3418 99.707 70.1416 99.707 70.1416Z" fill="#FDF6C3"/>
<path d="M53.2226 51.5869C53.2226 46.8506 50 46.8506 50 46.8506H36.7187V57.0312H49.1699C51.3183 57.0312 53.2226 56.3232 53.2226 51.5869Z" fill="#FDF6C3"/>
</svg>
