<svg width="129" height="72" viewBox="0 0 129 72" fill="none" xmlns="http://www.w3.org/2000/svg">
<path d="M35.4189 0.810547C42.359 0.810547 48.9395 2.41862 55.1602 5.63477L50.8438 18.5205C46.2311 16.1084 41.7666 14.9023 37.4502 14.9023C31.8219 14.9023 27.4632 16.722 24.374 20.3613C21.3271 24.0007 19.8037 29.1423 19.8037 35.7861C19.8037 42.3877 21.3695 47.487 24.501 51.084C27.6748 54.681 32.224 56.4795 38.1484 56.4795C43.015 56.4795 47.7757 55.4427 52.4307 53.3691L55.541 66.6357C52.4095 68.0322 49.0241 69.1113 45.3848 69.873C41.7454 70.6348 38.2754 71.0156 34.9746 71.0156C23.7181 71.0156 15.1064 67.9899 9.13965 61.9385C3.17285 55.887 0.189453 47.1696 0.189453 35.7861C0.189453 24.6989 3.25749 16.1084 9.39355 10.0146C15.5296 3.87858 24.2048 0.810547 35.4189 0.810547ZM58.334 1.88965H77.5674L87.5967 31.7871C88.9085 35.8496 90.5166 41.7741 92.4209 49.5605L93.4365 53.4961C94.1136 50.9147 94.6003 48.9681 94.8965 47.6562C96.5469 40.9701 97.9645 35.638 99.1494 31.6602L109.179 1.88965H128.158L104.735 70H81.7568L58.334 1.88965Z" fill="#FDF6C3"/>
</svg>
