<svg width="125" height="125" viewBox="0 0 125 125" fill="none" xmlns="http://www.w3.org/2000/svg">
<path d="M62.5 7.8125C32.2998 7.8125 7.8125 32.9346 7.8125 63.8916C7.8125 88.6719 23.4863 109.668 45.2148 117.09C45.5196 117.156 45.8307 117.189 46.1426 117.188C48.1689 117.188 48.9502 115.698 48.9502 114.404C48.9502 113.062 48.9014 109.546 48.877 104.858C47.068 105.282 45.2174 105.504 43.3594 105.518C32.8369 105.518 30.4443 97.3389 30.4443 97.3389C27.9541 90.8691 24.3652 89.1357 24.3652 89.1357C19.6045 85.791 24.3408 85.6934 24.707 85.6934H24.7314C30.2246 86.1816 33.1055 91.5039 33.1055 91.5039C35.8398 96.2891 39.502 97.6318 42.7734 97.6318C44.9366 97.5886 47.0663 97.0894 49.0234 96.167C49.5117 92.5537 50.9277 90.0879 52.4902 88.6719C40.3564 87.2559 27.5879 82.4463 27.5879 60.9619C27.5879 54.834 29.7119 49.8291 33.2031 45.9229C32.6416 44.5068 30.7617 38.7939 33.7402 31.0791C34.1398 30.9835 34.5504 30.9424 34.9609 30.957C36.9385 30.957 41.4062 31.7139 48.7793 36.8408C57.7381 34.3343 67.213 34.3343 76.1719 36.8408C83.5449 31.7139 88.0127 30.957 89.9902 30.957C90.4008 30.9424 90.8114 30.9835 91.2109 31.0791C94.1895 38.7939 92.3096 44.5068 91.748 45.9229C95.2393 49.8535 97.3633 54.8584 97.3633 60.9619C97.3633 82.4951 84.5703 87.2315 72.3877 88.6231C74.3408 90.3565 76.0986 93.7744 76.0986 98.999C76.0986 106.494 76.0254 112.549 76.0254 114.38C76.0254 115.698 76.7822 117.188 78.8086 117.188C79.1366 117.189 79.4639 117.156 79.7852 117.09C101.538 109.668 117.188 88.6475 117.188 63.8916C117.188 32.9346 92.7002 7.8125 62.5 7.8125Z" fill="#FDF6C3"/>
</svg>
